<?xml version="1.0" encoding="UTF-8"?>
<!-- Creator: CorelDRAW 2019 (64-Bit) -->
<svg xmlns="http://www.w3.org/2000/svg" xml:space="preserve" width="210mm" height="210mm" version="1.1" style="shape-rendering:geometricPrecision; text-rendering:geometricPrecision; image-rendering:optimizeQuality; fill-rule:evenodd; clip-rule:evenodd"
viewBox="0 0 21000 21000"
 xmlns:xlink="http://www.w3.org/1999/xlink"
 xmlns:xodm="http://www.corel.com/coreldraw/odm/2003">
 <defs>
  <style type="text/css">
   <![CDATA[
    .fil0 {fill:black}
    .fil12 {fill:#165371}
    .fil8 {fill:#25ABE6}
    .fil2 {fill:#26ADE6}
    .fil7 {fill:#28ADEA}
    .fil10 {fill:#747474}
    .fil9 {fill:#A0A09F}
    .fil11 {fill:#B5B5B5}
    .fil6 {fill:#E63B96}
    .fil3 {fill:#E83199}
    .fil5 {fill:#FED321}
    .fil1 {fill:#FED322}
    .fil4 {fill:#FED420}
   ]]>
  </style>
 </defs>
 <g id="Layer_x0020_1">
  <metadata id="CorelCorpID_0Corel-Layer"/>
  <g id="_2416422166672">
   <path class="fil0" d="M10012.48 9070.32c-97.58,-539.99 541.02,-828.23 885.26,-532.27 398.67,342.76 205.54,914.34 -243.54,979.65 -331.42,48.2 -593.73,-181.83 -641.72,-447.38zm-388.54 -16.05c12.45,195.35 75.34,329.48 169.7,458.79 250.73,343.55 707.65,479.84 1091.84,319.56 86.26,-35.99 138.73,-82.37 206.48,-117.75 70.33,1134.69 -901.4,1006.76 -1052.54,520.79 -27.61,-88.76 -37.86,-134.1 -98.51,-176.79 -134.16,-94.43 -452.68,-17.42 -255.26,401 108.4,229.73 355.24,443.36 663.63,496.78 254.91,69.61 580.78,-28.92 753.35,-149.03 501.4,-349 408.07,-928.63 408.36,-1495.37 0.21,-407.4 5.93,-482.55 -141.76,-806.42 41.26,-80.73 267.94,-228.25 116.2,-394.08 -40.85,-44.63 -140.58,-79.47 -226.97,-51.97 -75.24,23.95 -92.02,82.94 -151.07,136.53 -182.06,-40.34 -557.18,-307.21 -1043.32,-8.11 -230.9,142.06 -481.81,446.63 -440.13,866.07z"/>
   <path class="fil0" d="M3639.37 8852.76l14.45 -61.92c1.69,-3.91 5.64,-8.96 7.21,-12.14 1.59,-3.23 5.58,-7.72 8.12,-11.76 154.19,-344.48 583.92,-467.27 890.11,-164.24 344.39,340.84 14,919.67 -217.67,884.18 -71.12,59.94 -220.81,44.06 -304.29,21.4 -139.86,-34.19 -254.37,-128.94 -317.87,-227.32 -94.19,-145.9 -92.18,-236.98 -80.06,-428.2zm1037.23 -636.47c-172.67,-71.42 -231.11,-153.22 -487.96,-160.9 -511.46,-15.3 -984.97,420.85 -943.2,999.07 53.74,743.9 973.08,1102.73 1524.93,630.15 289.6,-247.99 327.8,-466.95 326,-969.11 -1.55,-430.04 -0.64,-860.19 -0.86,-1290.25 -0.09,-155.78 31.33,-500.79 -45.54,-603.55 -114.82,-153.5 -358.65,-76.98 -372.42,121.25 -27.06,389.6 1.84,872.09 -0.95,1273.34z"/>
   <path class="fil0" d="M11351.06 12337.96c-8.43,43.57 6.64,-0.17 -10.16,46.1 -14.95,41.16 -9.42,16.83 -22.14,34.7 -65.82,154.91 -212.46,293.34 -420.84,313.76 -217.48,21.32 -469.55,-108.27 -493.55,-243.54 -26.62,-21.49 -29.45,-12.61 -55.94,-79.78 -221.96,-562.77 466.43,-1003.95 866.19,-585.37 132.4,145.05 155.19,264.28 136.44,514.13zm-1268.33 -659.68c-83.35,125.86 -134.97,245.83 -153.59,424.06 -19.92,156.26 -9.67,1675.01 -4.41,1935.74 2.99,148.53 104.29,276.95 276.51,223.58 140.44,-43.51 129.64,-190.59 129.61,-352.89 -0.05,-307.82 -17.05,-666.42 2.82,-968.05 98.83,44.07 154.17,98.78 301.29,135.73 612.02,153.74 1256.71,-394.71 1077.75,-1095.8 -184.07,-721.08 -1154.19,-965.81 -1629.98,-302.37z"/>
   <path class="fil0" d="M5392.39 9248.94l35.73 65.95c250.38,666.26 1148.66,737.98 1482.16,315.97 76.84,-97.24 70.95,-216.79 -20.61,-278.07 -126.59,-84.73 -208.44,-3.32 -281.7,56.73 -386.05,316.44 -954.95,-101.37 -789.14,-612.72 61.48,-189.63 211.46,-341.88 449.48,-355.26 249.44,-14.03 463.05,130.55 492.27,341.01 -112.24,-0.08 -343.17,-29.12 -420.48,36.52 -96.79,82.18 -76.85,260.8 33.61,308.04 73.36,31.37 330.85,17.51 427.46,17.36 161.72,-0.26 286.72,26.24 367.02,-82.46 53.1,-131.89 12.33,-314.47 -35.04,-437.61 -55.39,-144.02 -99.04,-208.7 -203.19,-312 -527.38,-523.07 -1412.61,-209.87 -1545.05,486.93 -46.99,247.21 15.79,340.23 7.48,449.61z"/>
   <path class="fil0" d="M14536.56 9860.44c15.91,2.28 46.12,4.57 61.93,7.22l27.2 4.61c38.44,10.58 34.59,14.01 43.36,18.46 222.74,1.16 355.83,0.33 535.67,-93.91 445.01,-233.19 197.65,-524.88 6.59,-461.91 -59.83,19.71 -109.57,88.71 -181.9,125.15 -157.17,79.2 -379.72,68.95 -514.38,-23.14 -294.39,-201.35 -330.91,-598.71 -60.89,-874.38 240.33,-245.37 744.59,-101.99 804.69,219.62 -102.66,-0.22 -354.42,-19.69 -430.83,24.83 -95.04,55.38 -96.56,233.75 -1.82,302.48 78.37,56.86 733.85,53.71 805.96,-13.86 147.85,-138.56 -38.55,-555.25 -119.09,-673.22 -419.77,-614.84 -1446.88,-434.7 -1629.67,344.04 -129.41,551.38 264.62,1049.48 653.18,1094.01z"/>
   <path class="fil0" d="M12223.26 8278.53c-54.63,-62.73 -23.34,-159.79 -149.6,-193.05 -120.35,-31.71 -195.17,22.65 -229.46,92.57 -45.95,93.69 -24.34,1102.07 -23.92,1279.35 0.48,205.26 -18.2,420.98 222.37,416.25 368.64,-7.26 93.94,-693.19 224.97,-1079.23 149.04,-439.02 680.69,-374.13 836.44,-172.59 256.84,332.36 34.71,921.34 156.07,1149.8 83.72,157.58 350.94,128.19 374.58,-74.8 19.17,-164.58 3.3,-465.04 1.79,-642.64 -9.64,-1133.62 -1117.23,-1109.24 -1413.24,-775.66z"/>
   <path class="fil0" d="M13267.66 11853.29c12.94,6.13 6.87,-8.07 33.39,22.9 0.74,0.86 22.05,34.92 24.86,39.88 22.94,40.51 34.3,54.52 34.34,104.5 103.16,118.28 47.43,535.45 -260.73,670.94 -239.63,105.35 -555.82,37.89 -704.52,-215.65 -161.86,-275.95 -37.8,-574.18 136.81,-707.11 274.01,-208.6 653.67,-88.79 735.85,84.54zm505.58 474.93c73.12,-538.33 -318.32,-963.58 -763,-1029.54 -561.36,-83.29 -985.92,299.42 -1056.36,757.9 -85.72,557.82 309.45,975.67 766.46,1043.79 510.91,76.16 981.65,-247.6 1052.9,-772.15z"/>
   <path class="fil0" d="M15097.92 11450.67c-7.67,-19.86 -15.77,-43.11 -24.28,-56.89 -60.71,-98.15 -239.01,-106.31 -314.98,5.19 -51.41,75.47 -29.26,1072.06 -28.93,1235.68 0.41,200.05 -19.72,432.8 186.58,448.06 373.4,27.62 141.97,-531.1 238.9,-1011.88 71,-352.15 496.87,-514.24 762.14,-246.19 241.96,244.49 64.45,893.68 153.53,1119.64 68.63,174.12 320.7,165.23 367.83,-12.26 25.08,-94.42 10.46,-490.25 10.36,-619.93 -0.33,-450.69 -102.84,-698.93 -383.19,-878.09 -316.95,-202.55 -667.73,-143.79 -942.58,66.6l-25.38 -49.93z"/>
   <path class="fil0" d="M7766.26 9045.02c127.42,60.21 301.86,96.43 410.21,166.29 285.46,184.03 -89.44,462.71 -398.67,221.05 -32.59,-25.46 -37.46,-46.56 -78.45,-66.68 -161.09,-79.03 -313.45,87.85 -249.95,249.65 91.56,233.33 520.39,348.59 828.68,238.63 252.94,-90.2 504.61,-396.26 334.97,-749.99 -123.14,-243.73 -387.02,-282.08 -626.07,-380.79 -80.88,-33.39 -180.7,-65.37 -166.26,-165.68 17.71,-123.11 220.4,-193.09 464.61,-19.8 212.91,151.08 375.46,-81.85 255.15,-255.01 -316.97,-456.22 -1279.08,-176.96 -1105.96,428.52 42.66,149.19 184.64,285.88 331.74,333.81z"/>
   <path class="fil0" d="M17585.61 11665.44l-491.91 -4.44 -8.69 -231.83c-29.59,-161.33 -233.03,-210.78 -331.51,-99.7 -79.91,90.14 -55.19,323.14 -55.1,466.51 0.15,241.49 -33.14,823.13 47.76,1006.01 95.89,216.77 420.64,388.2 689.53,209.35 77.8,-51.74 227.55,-200.42 132.7,-353.74 -111.2,-179.79 -295.02,52.32 -316.17,57.91 -154.3,1.37 -154.16,-113.25 -154.95,-258.24 -0.73,-135.07 -4.29,-277.81 1.12,-412.1 131.32,-19.39 479.29,25.96 563.86,-32.57 116.86,-80.87 119.18,-315.05 -76.64,-347.16z"/>
   <path class="fil1" d="M10012.48 9070.32c47.99,265.55 310.3,495.58 641.72,447.38 449.08,-65.31 642.21,-636.89 243.54,-979.65 -344.24,-295.96 -982.84,-7.72 -885.26,532.27z"/>
   <path class="fil0" d="M16341.04 9280.07c8.52,-311.49 20.42,-522.98 207.01,-672.03 75.34,-60.17 213.35,-109.79 260.03,-175.47 85.27,-119.98 9.59,-270.5 -104.14,-313.86 -47.63,-46.32 -177.07,5.16 -215.54,26.18 -47.63,26.02 -118.83,93.22 -153.36,131.86 -27.33,28.4 35.08,22.21 -33.81,24.03l-4.27 -51.02c-18.43,-111.83 -102.23,-202.11 -247.82,-156.57 -119.82,37.47 -124.22,139.23 -123.79,283.61 0.8,268.81 -0.3,537.61 0.23,806.42 0.57,285.79 -59.68,622.94 164.95,665.45 317.32,60.05 248.71,-345.17 250.51,-568.6z"/>
   <path class="fil2" d="M3669.15 8766.94c-6.14,40.32 0.94,17.81 -8.62,48.48 -19.7,63.18 -4.24,11.54 -21.16,37.34 -12.12,191.22 -14.13,282.3 80.06,428.2 63.5,98.38 178.01,193.13 317.87,227.32 1.36,-3.69 3.49,-13.43 3.76,-11.18l5.47 -44.51c0.67,-2.58 1.38,-7.65 2.28,-10.06l25.6 -35.68c1.66,-2.97 8.88,-22.86 9.46,-23.76l56.15 -91.79c16.07,36.75 -5.77,33.05 48.38,46.78 25.18,-17.39 72.56,-59.84 96.77,-88.75 3.24,2.55 8.22,2.44 9.64,7.73 5.73,21.21 71.11,47.9 102.09,68.77l22.11 18.67c-82.09,55.57 10.03,-7.12 -68.44,88.53 -31.65,38.59 -12.4,-22.55 -17.1,24.37 -62.2,34.2 -19.67,-1.52 8.12,29.48 231.67,35.49 562.06,-543.34 217.67,-884.18 -306.19,-303.03 -735.92,-180.24 -890.11,164.24z"/>
   <path class="fil0" d="M8989.94 9683.27c16.77,111.01 72.21,179.86 182.79,190.06 138.3,12.77 194.3,-50.39 219.88,-157.8 23.03,-115.37 6.86,-1169.6 5.85,-1435.59 -0.61,-160.87 -48.45,-255.9 -210.29,-255.92 -175.77,-0.03 -208.6,106.06 -208.06,272.1 0.77,232.22 -11.67,1313.24 9.83,1387.15z"/>
   <path class="fil0" d="M14012.27 12908.83c22.3,155.67 202.06,234.8 328.23,136.52 100.13,-78 64.45,-326.87 64.55,-475.22l-4.71 -1081.42c-16.95,-151.49 -208.6,-237.53 -324.89,-127.67 -105.53,99.69 -68.11,301.77 -67.21,467.2l4.03 1080.59z"/>
   <path class="fil3" d="M10404.37 12488.98l71.16 -44.14c41.13,-26.18 -36.16,-25.24 67.37,-35.99 -21.16,25.41 -19.6,10.85 -24.16,80.65 51.27,-8.44 38.63,-4.5 72.54,-40.29 2.52,3.53 5.86,5.07 6.95,10.99l74.74 78.58c5.06,4.67 10.21,9.9 15,15.15 -1.33,0.51 -4.49,-1.14 -4.29,0.22 3.59,23.95 1.19,-1.7 1.59,-1.77 2.62,-0.53 26.64,-5.04 43.06,-6.39l-8.16 136.95c18.71,-9.05 -38.28,-53.72 24.43,21.98 1.51,1.82 5.14,7 7.97,10.29l48.13 -16.8 16.46 -112.06c28.25,4.19 47.18,8.52 104.71,-0.09 16.36,53.54 62.53,40.56 104.87,32.26 -18.32,-13.3 0.62,-16.13 -64.51,-16.21 6.35,-37.39 18.55,-66.73 16.21,-80.64 -2.89,-0.7 -12.18,-2.75 -15.71,-1.75l-48.81 17.88c10.32,-84.34 8.21,-19.6 -16.2,-88.66l-63.56 13.02c-33.05,-102.97 -49.26,-32.34 -49.26,-166.12l112.82 -112.98c6.99,-15.33 -22.61,-34.44 -15.7,-99.68 8.29,-78.28 35.34,-31.82 -4.55,-75.95 -3.53,-3.91 -9.53,-8.91 -12.96,-12.39 -3.89,-3.93 -10.13,-8.96 -15.09,-13.54 85.71,-1.37 48.42,19.35 80.56,-40.36 26.22,21.82 9.7,2 29.25,29.48 6.33,8.91 14.37,28.02 19.13,35.03l80.56 -48.3c7.08,58.5 -7.38,26.47 28.24,64.43l-44.29 48.38c95.48,18.34 60.5,-33.24 64.44,96.69l-56.52 -44.2c-83.25,-56.98 -30.85,-4.33 -32.15,-20.23 -0.66,0.69 -54.32,11.11 -11.36,12.9l51.64 -12.82 -12.46 73.32c70.07,35.34 24.53,59.55 68.06,35.64 46.69,-25.64 -45.11,-8.17 57.38,-24.39l4.98 11.7c0.53,0.64 2.59,4.98 3.36,5.74 0.85,0.84 3.74,4.47 4.89,5.35 10.62,8.19 35.58,15.02 51.28,21.58 -39.45,33.52 -26.95,-33.26 -25.17,38.3 0.07,2.94 1.13,8.46 1.84,11.42 0.74,3.11 4.08,8.12 5.32,10.94 1.62,3.73 14.19,16.13 17.93,19.99 -4.65,-33.06 64.38,-125.77 40.44,-80.72 -9.83,-81.95 8.57,-169.25 -30.18,-221.32 -43.81,-58.88 9.91,11.03 -16.7,-15.67l-39.74 -70.61c-19.57,-59.8 4.46,-20.34 -22.27,-47.15 4.24,-3.43 10.79,-13.55 12.73,-10.25l34.01 -42.54c-399.76,-418.58 -1088.15,22.6 -866.19,585.37 26.49,67.17 29.32,58.29 55.94,79.78zm0 0c24,135.27 276.07,264.86 493.55,243.54 208.38,-20.42 355.02,-158.85 420.84,-313.76 6.63,-36.24 -1,-15.91 9.73,-45.61 23.75,-65.74 -1.24,-3.01 22.57,-35.19 18.75,-249.85 -4.04,-369.08 -136.44,-514.13l-34.01 42.54c-1.94,-3.3 -8.49,6.82 -12.73,10.25 26.73,26.81 2.7,-12.65 22.27,47.15l39.74 70.61c26.61,26.7 -27.11,-43.21 16.7,15.67 38.75,52.07 20.35,139.37 30.18,221.32 23.94,-45.05 -45.09,47.66 -40.44,80.72 -3.74,-3.86 -16.31,-16.26 -17.93,-19.99 -1.24,-2.82 -4.58,-7.83 -5.32,-10.94 -0.71,-2.96 -1.77,-8.48 -1.84,-11.42 -1.78,-71.56 -14.28,-4.78 25.17,-38.3 -15.7,-6.56 -40.66,-13.39 -51.28,-21.58 -1.15,-0.88 -4.04,-4.51 -4.89,-5.35 -0.77,-0.76 -2.83,-5.1 -3.36,-5.74l-4.98 -11.7c-102.49,16.22 -10.69,-1.25 -57.38,24.39 -43.53,23.91 2.01,-0.3 -68.06,-35.64l12.46 -73.32 -51.64 12.82c-42.96,-1.79 10.7,-12.21 11.36,-12.9 1.3,15.9 -51.1,-36.75 32.15,20.23l56.52 44.2c-3.94,-129.93 31.04,-78.35 -64.44,-96.69l44.29 -48.38c-35.62,-37.96 -21.16,-5.93 -28.24,-64.43l-80.56 48.3c-4.76,-7.01 -12.8,-26.12 -19.13,-35.03 -19.55,-27.48 -3.03,-7.66 -29.25,-29.48 -32.14,59.71 5.15,38.99 -80.56,40.36 4.96,4.58 11.2,9.61 15.09,13.54 3.43,3.48 9.43,8.48 12.96,12.39 39.89,44.13 12.84,-2.33 4.55,75.95 -6.91,65.24 22.69,84.35 15.7,99.68l-112.82 112.98c0,133.78 16.21,63.15 49.26,166.12l63.56 -13.02c24.41,69.06 26.52,4.32 16.2,88.66l48.81 -17.88c3.53,-1 12.82,1.05 15.71,1.75 2.34,13.91 -9.86,43.25 -16.21,80.64 65.13,0.08 46.19,2.91 64.51,16.21 -42.34,8.3 -88.51,21.28 -104.87,-32.26 -57.53,8.61 -76.46,4.28 -104.71,0.09l-16.46 112.06 -48.13 16.8c-2.83,-3.29 -6.46,-8.47 -7.97,-10.29 -62.71,-75.7 -5.72,-31.03 -24.43,-21.98l8.16 -136.95c-16.42,1.35 -40.44,5.86 -43.06,6.39 -0.4,0.07 2,25.72 -1.59,1.77 -0.2,-1.36 2.96,0.29 4.29,-0.22 -4.79,-5.25 -9.94,-10.48 -15,-15.15l-74.74 -78.58c-1.09,-5.92 -4.43,-7.46 -6.95,-10.99 -33.91,35.79 -21.27,31.85 -72.54,40.29 4.56,-69.8 3,-55.24 24.16,-80.65 -103.53,10.75 -26.24,9.81 -67.37,35.99l-71.16 44.14zm914.39 -70.22c12.72,-17.87 7.19,6.46 22.14,-34.7 16.8,-46.27 1.73,-2.53 10.16,-46.1 -23.81,32.18 1.18,-30.55 -22.57,35.19 -10.73,29.7 -3.1,9.37 -9.73,45.61z"/>
   <path class="fil4" d="M13360.25 12020.57c-0.04,-49.98 -11.4,-63.99 -34.34,-104.5 -2.81,-4.96 -24.12,-39.02 -24.86,-39.88 -26.52,-30.97 -20.45,-16.77 -33.39,-22.9 -121.33,-19.64 -88.46,23.43 -175.05,0.65 -32.17,-8.47 -84.69,-26 -102.52,54.21l4.37 32.9c-3.12,-2.52 12.75,-54.56 -64.13,14.93l-64.9 82.01c-54.2,0 -68.6,-4.74 -112.89,-16.13 -5.29,75.66 10.62,35.25 -16.13,48.38l-16.29 -16.28c51.22,-11.18 68.09,-40.82 98.08,-74.45 1.06,-1.17 2.71,-5.32 3.75,-6.3l59.45 -16.03 -76.2 -85.4c-47.66,-35.96 10.28,-24.22 -85.08,-27.33 27.08,-22.5 21.22,-38.69 32.26,-80.64 -137.07,36.95 -48.56,31.97 -48.39,32.25 -30.46,-111.67 -2.87,-30.16 -64.35,-64.51l-48.38 128.87c65.26,27.65 45.44,-9.15 48.38,64.51l2.75 -6.37c-36.82,153.03 -6.31,105.22 -2.83,103.3 -82.14,0 -97.55,-6.18 -177.33,16.04 -11.56,57.86 21.31,-28.85 -80.64,48.47 24.01,63.38 5.54,25.55 31.23,53.85l17.16 -5.63c0,22.18 1.23,32.6 -3.41,53.81l-9.7 29.84c-3.92,48.48 22.6,77.08 45.36,93.76 -29.35,-15.58 -15.84,-5.71 -64.51,16.29 48.56,67.42 45.07,59.13 106.53,99.32 1.08,0.71 4.95,1.95 5.84,2.7 0.7,0.59 3.15,2.68 3.74,3.36 0.7,0.82 1.68,4.53 2.35,5.52l155.64 82.48c13.26,100.39 -12.91,23.69 64.43,48.39 29.74,-70.21 33.51,-42.65 64.65,-64.52l0.03 48.39 60.45 -31.3c5.95,-2.04 29.14,-0.96 36.31,-0.96 7.79,73.55 31.11,84.07 94.42,91.32 78.77,9.02 -28.6,-2.64 58.36,-1.56 45.84,0.57 -9.67,-3.24 72.86,7.01 -25.37,-83.09 11.44,-9.63 -32.26,-80.48l12.75 2.48c0.97,-0.52 4.92,-3.2 6.01,-4.02 1.4,-1.05 4.34,-5.89 5.84,-7.27 82.19,-74.97 -64.84,17.47 29.43,-27.53l91.12 -28.34c-19.27,-65.89 2.07,-32.16 -27.85,-68.56 -31.43,-38.23 -15.83,2.02 -20.53,4.06 2.39,-3.6 5.75,-8.72 7.28,-10.73 1.4,-1.84 5.18,-7.65 6.87,-9.68l12.34 -14.75c13.1,-9.82 -14.36,-17.68 38.1,2.9l30.6 -42.89c2.23,-3.49 3.57,-8.01 5.61,-11.23 1.63,-2.56 3.04,-6.57 4.57,-8.87l64.09 -114.42c-3.75,-78.61 -16.66,-102.08 2.95,-178.54z"/>
   <path class="fil5" d="M13360.25 12020.57c-19.61,76.46 -6.7,99.93 -2.95,178.54l-64.09 114.42c-1.53,2.3 -2.94,6.31 -4.57,8.87 -2.04,3.22 -3.38,7.74 -5.61,11.23l-30.6 42.89c-52.46,-20.58 -25,-12.72 -38.1,-2.9l-12.34 14.75c-1.69,2.03 -5.47,7.84 -6.87,9.68 -1.53,2.01 -4.89,7.13 -7.28,10.73 4.7,-2.04 -10.9,-42.29 20.53,-4.06 29.92,36.4 8.58,2.67 27.85,68.56l-91.12 28.34c-94.27,45 52.76,-47.44 -29.43,27.53 -1.5,1.38 -4.44,6.22 -5.84,7.27 -1.09,0.82 -5.04,3.5 -6.01,4.02l-12.75 -2.48c43.7,70.85 6.89,-2.61 32.26,80.48 -82.53,-10.25 -27.02,-6.44 -72.86,-7.01 -86.96,-1.08 20.41,10.58 -58.36,1.56 -63.31,-7.25 -86.63,-17.77 -94.42,-91.32 -7.17,0 -30.36,-1.08 -36.31,0.96l-60.45 31.3 -0.03 -48.39c-31.14,21.87 -34.91,-5.69 -64.65,64.52 -77.34,-24.7 -51.17,52 -64.43,-48.39l-155.64 -82.48c-0.67,-0.99 -1.65,-4.7 -2.35,-5.52 -0.59,-0.68 -3.04,-2.77 -3.74,-3.36 -0.89,-0.75 -4.76,-1.99 -5.84,-2.7 -61.46,-40.19 -57.97,-31.9 -106.53,-99.32 48.67,-22 35.16,-31.87 64.51,-16.29 -22.76,-16.68 -49.28,-45.28 -45.36,-93.76l9.7 -29.84c4.64,-21.21 3.41,-31.63 3.41,-53.81l-17.16 5.63c-25.69,-28.3 -7.22,9.53 -31.23,-53.85 101.95,-77.32 69.08,9.39 80.64,-48.47 79.78,-22.22 95.19,-16.04 177.33,-16.04 -3.48,1.92 -33.99,49.73 2.83,-103.3l-2.75 6.37c-2.94,-73.66 16.88,-36.86 -48.38,-64.51l48.38 -128.87c61.48,34.35 33.89,-47.16 64.35,64.51 -0.17,-0.28 -88.68,4.7 48.39,-32.25 -11.04,41.95 -5.18,58.14 -32.26,80.64 95.36,3.11 37.42,-8.63 85.08,27.33l76.2 85.4 -59.45 16.03c-1.04,0.98 -2.69,5.13 -3.75,6.3 -29.99,33.63 -46.86,63.27 -98.08,74.45l16.29 16.28c26.75,-13.13 10.84,27.28 16.13,-48.38 44.29,11.39 58.69,16.13 112.89,16.13l64.9 -82.01c76.88,-69.49 61.01,-17.45 64.13,-14.93l-4.37 -32.9c17.83,-80.21 70.35,-62.68 102.52,-54.21 86.59,22.78 53.72,-20.29 175.05,-0.65 -82.18,-173.33 -461.84,-293.14 -735.85,-84.54 -174.61,132.93 -298.67,431.16 -136.81,707.11 148.7,253.54 464.89,321 704.52,215.65 308.16,-135.49 363.89,-552.66 260.73,-670.94z"/>
   <path class="fil6" d="M8906.86 7473.63c58.46,329.98 608.82,278.84 551.68,-110.41 -51.06,-347.9 -621.66,-284.61 -551.68,110.41z"/>
   <path class="fil7" d="M13961.57 10763.78c41.1,338.23 559.7,295.05 520.44,-65.41 -34.84,-319.79 -563.41,-288.08 -520.44,65.41z"/>
   <path class="fil8" d="M4037.3 9508.28c83.48,22.66 233.17,38.54 304.29,-21.4 -27.79,-31 -70.32,4.72 -8.12,-29.48 4.7,-46.92 -14.55,14.22 17.1,-24.37 78.47,-95.65 -13.65,-32.96 68.44,-88.53l-22.11 -18.67c-30.98,-20.87 -96.36,-47.56 -102.09,-68.77 -1.42,-5.29 -6.4,-5.18 -9.64,-7.73 -24.21,28.91 -71.59,71.36 -96.77,88.75 -54.15,-13.73 -32.31,-10.03 -48.38,-46.78l-56.15 91.79c-0.58,0.9 -7.8,20.79 -9.46,23.76l-25.6 35.68c-0.9,2.41 -1.61,7.48 -2.28,10.06l-5.47 44.51c-0.27,-2.25 -2.4,7.49 -3.76,11.18z"/>
   <path class="fil9" d="M17585.61 11665.44c-4.46,-1.92 -9.61,-4.84 -13.33,-5.9l-44.76 -10.04c-13.73,-1.43 -49.83,0.08 -65.68,0.17 -37.62,0.23 -75.23,0.11 -112.86,0.18 -81.12,0.17 -162.26,0.45 -243.39,0.98 1.12,-55.3 19.25,-194.69 -20.58,-221.66l8.69 231.83 491.91 4.44z"/>
   <path class="fil10" d="M14669.05 9890.73c-8.77,-4.45 -4.92,-7.88 -43.36,-18.46l-27.2 -4.61c-15.81,-2.65 -46.02,-4.94 -61.93,-7.22 7.33,4.88 0.09,15.86 61.26,26.27 20.83,3.54 51.34,2.8 71.23,4.02z"/>
   <path class="fil11" d="M16335.04 8276.75c-12.71,-8.4 -24.08,-14.76 -38.08,-26.99l4.27 51.02c68.89,-1.82 6.48,4.37 33.81,-24.03z"/>
   <path class="fil12" d="M3639.37 8852.76c16.92,-25.8 1.46,25.84 21.16,-37.34 9.56,-30.67 2.48,-8.16 8.62,-48.48 -2.54,4.04 -6.53,8.53 -8.12,11.76 -1.57,3.18 -5.52,8.23 -7.21,12.14l-14.45 61.92z"/>
  </g>
 </g>
</svg>
